<svg width="190" height="61" viewBox="0 0 190 61" fill="none" xmlns="http://www.w3.org/2000/svg">
<path d="M9.05114 49H1.14205L13.1932 14.0909H22.7045L34.7386 49H26.8295L18.0852 22.0682H17.8125L9.05114 49ZM8.55682 35.2784H27.2386V41.0398H8.55682V35.2784ZM38.9403 49V14.0909H52.7131C55.3494 14.0909 57.5994 14.5625 59.4631 15.5057C61.3381 16.4375 62.7642 17.7614 63.7415 19.4773C64.7301 21.1818 65.2244 23.1875 65.2244 25.4943C65.2244 27.8125 64.7244 29.8068 63.7244 31.4773C62.7244 33.1364 61.2756 34.4091 59.3778 35.2955C57.4915 36.1818 55.2074 36.625 52.5256 36.625H43.304V30.6932H51.3324C52.7415 30.6932 53.9119 30.5 54.8438 30.1136C55.7756 29.7273 56.4688 29.1477 56.9233 28.375C57.3892 27.6023 57.6222 26.642 57.6222 25.4943C57.6222 24.3352 57.3892 23.358 56.9233 22.5625C56.4688 21.767 55.7699 21.1648 54.8267 20.7557C53.8949 20.3352 52.7188 20.125 51.2983 20.125H46.321V49H38.9403ZM57.7926 33.1136L66.4688 49H58.321L49.8324 33.1136H57.7926ZM69.1108 20.1761V14.0909H97.7812V20.1761H87.0938V49H79.7983V20.1761H69.1108ZM121.44 24.1307C121.304 22.7557 120.719 21.6875 119.685 20.9261C118.651 20.1648 117.247 19.7841 115.474 19.7841C114.27 19.7841 113.253 19.9545 112.423 20.2955C111.594 20.625 110.957 21.0852 110.514 21.6761C110.082 22.267 109.866 22.9375 109.866 23.6875C109.844 24.3125 109.974 24.858 110.259 25.3239C110.554 25.7898 110.957 26.1932 111.469 26.5341C111.98 26.8636 112.571 27.1534 113.241 27.4034C113.912 27.642 114.628 27.8466 115.389 28.017L118.526 28.767C120.048 29.108 121.446 29.5625 122.719 30.1307C123.991 30.6989 125.094 31.3977 126.026 32.2273C126.957 33.0568 127.679 34.0341 128.19 35.1591C128.713 36.2841 128.98 37.5739 128.991 39.0284C128.98 41.1648 128.435 43.017 127.355 44.5852C126.287 46.142 124.741 47.3523 122.719 48.2159C120.707 49.0682 118.281 49.4943 115.44 49.4943C112.622 49.4943 110.168 49.0625 108.077 48.1989C105.997 47.3352 104.372 46.0568 103.202 44.3636C102.043 42.6591 101.435 40.5511 101.378 38.0398H108.52C108.599 39.2102 108.935 40.1875 109.526 40.9716C110.128 41.7443 110.929 42.3295 111.929 42.7273C112.94 43.1136 114.082 43.3068 115.355 43.3068C116.605 43.3068 117.69 43.125 118.611 42.7614C119.543 42.3977 120.264 41.892 120.776 41.2443C121.287 40.5966 121.543 39.8523 121.543 39.0114C121.543 38.2273 121.31 37.5682 120.844 37.0341C120.389 36.5 119.719 36.0455 118.832 35.6705C117.957 35.2955 116.884 34.9545 115.611 34.6477L111.81 33.6932C108.866 32.9773 106.543 31.858 104.838 30.3352C103.134 28.8125 102.287 26.7614 102.298 24.1818C102.287 22.0682 102.849 20.2216 103.986 18.642C105.134 17.0625 106.707 15.8295 108.707 14.9432C110.707 14.0568 112.98 13.6136 115.526 13.6136C118.116 13.6136 120.378 14.0568 122.31 14.9432C124.253 15.8295 125.764 17.0625 126.844 18.642C127.923 20.2216 128.48 22.0511 128.514 24.1307H121.44ZM131.911 14.0909H140.178L148.138 29.125H148.479L156.439 14.0909H164.706L151.973 36.6591V49H144.643V36.6591L131.911 14.0909ZM167.8 31.5455V27.7784L176.101 21.1477C176.737 20.625 177.288 20.1534 177.754 19.733C178.22 19.3125 178.584 18.8864 178.845 18.4545C179.107 18.0227 179.237 17.5455 179.237 17.0227C179.237 16.2045 178.902 15.5739 178.232 15.1307C177.561 14.6875 176.749 14.4659 175.794 14.4659C174.771 14.4659 173.947 14.7159 173.322 15.2159C172.709 15.7045 172.402 16.4148 172.402 17.3466H167.374C167.374 15.1648 168.169 13.4545 169.76 12.2159C171.351 10.9659 173.385 10.3409 175.862 10.3409C177.555 10.3409 179.027 10.6364 180.277 11.2273C181.527 11.8068 182.493 12.5966 183.175 13.5966C183.868 14.5966 184.214 15.7159 184.214 16.9545C184.214 17.9545 184.004 18.8864 183.584 19.75C183.175 20.6023 182.538 21.4432 181.675 22.2727C180.822 23.0909 179.72 23.9489 178.368 24.8466L175.334 27.0966V27.2841H184.453V31.5455H167.8Z" fill="black"/>
<path d="M10.0511 47H2.14205L14.1932 12.0909H23.7045L35.7386 47H27.8295L19.0852 20.0682H18.8125L10.0511 47ZM9.55682 33.2784H28.2386V39.0398H9.55682V33.2784ZM39.9403 47V12.0909H53.7131C56.3494 12.0909 58.5994 12.5625 60.4631 13.5057C62.3381 14.4375 63.7642 15.7614 64.7415 17.4773C65.7301 19.1818 66.2244 21.1875 66.2244 23.4943C66.2244 25.8125 65.7244 27.8068 64.7244 29.4773C63.7244 31.1364 62.2756 32.4091 60.3778 33.2955C58.4915 34.1818 56.2074 34.625 53.5256 34.625H44.304V28.6932H52.3324C53.7415 28.6932 54.9119 28.5 55.8438 28.1136C56.7756 27.7273 57.4688 27.1477 57.9233 26.375C58.3892 25.6023 58.6222 24.642 58.6222 23.4943C58.6222 22.3352 58.3892 21.358 57.9233 20.5625C57.4688 19.767 56.7699 19.1648 55.8267 18.7557C54.8949 18.3352 53.7188 18.125 52.2983 18.125H47.321V47H39.9403ZM58.7926 31.1136L67.4688 47H59.321L50.8324 31.1136H58.7926ZM70.1108 18.1761V12.0909H98.7812V18.1761H88.0938V47H80.7983V18.1761H70.1108ZM122.44 22.1307C122.304 20.7557 121.719 19.6875 120.685 18.9261C119.651 18.1648 118.247 17.7841 116.474 17.7841C115.27 17.7841 114.253 17.9545 113.423 18.2955C112.594 18.625 111.957 19.0852 111.514 19.6761C111.082 20.267 110.866 20.9375 110.866 21.6875C110.844 22.3125 110.974 22.858 111.259 23.3239C111.554 23.7898 111.957 24.1932 112.469 24.5341C112.98 24.8636 113.571 25.1534 114.241 25.4034C114.912 25.642 115.628 25.8466 116.389 26.017L119.526 26.767C121.048 27.108 122.446 27.5625 123.719 28.1307C124.991 28.6989 126.094 29.3977 127.026 30.2273C127.957 31.0568 128.679 32.0341 129.19 33.1591C129.713 34.2841 129.98 35.5739 129.991 37.0284C129.98 39.1648 129.435 41.017 128.355 42.5852C127.287 44.142 125.741 45.3523 123.719 46.2159C121.707 47.0682 119.281 47.4943 116.44 47.4943C113.622 47.4943 111.168 47.0625 109.077 46.1989C106.997 45.3352 105.372 44.0568 104.202 42.3636C103.043 40.6591 102.435 38.5511 102.378 36.0398H109.52C109.599 37.2102 109.935 38.1875 110.526 38.9716C111.128 39.7443 111.929 40.3295 112.929 40.7273C113.94 41.1136 115.082 41.3068 116.355 41.3068C117.605 41.3068 118.69 41.125 119.611 40.7614C120.543 40.3977 121.264 39.892 121.776 39.2443C122.287 38.5966 122.543 37.8523 122.543 37.0114C122.543 36.2273 122.31 35.5682 121.844 35.0341C121.389 34.5 120.719 34.0455 119.832 33.6705C118.957 33.2955 117.884 32.9545 116.611 32.6477L112.81 31.6932C109.866 30.9773 107.543 29.858 105.838 28.3352C104.134 26.8125 103.287 24.7614 103.298 22.1818C103.287 20.0682 103.849 18.2216 104.986 16.642C106.134 15.0625 107.707 13.8295 109.707 12.9432C111.707 12.0568 113.98 11.6136 116.526 11.6136C119.116 11.6136 121.378 12.0568 123.31 12.9432C125.253 13.8295 126.764 15.0625 127.844 16.642C128.923 18.2216 129.48 20.0511 129.514 22.1307H122.44ZM132.911 12.0909H141.178L149.138 27.125H149.479L157.439 12.0909H165.706L152.973 34.6591V47H145.643V34.6591L132.911 12.0909ZM168.8 29.5455V25.7784L177.101 19.1477C177.737 18.625 178.288 18.1534 178.754 17.733C179.22 17.3125 179.584 16.8864 179.845 16.4545C180.107 16.0227 180.237 15.5455 180.237 15.0227C180.237 14.2045 179.902 13.5739 179.232 13.1307C178.561 12.6875 177.749 12.4659 176.794 12.4659C175.771 12.4659 174.947 12.7159 174.322 13.2159C173.709 13.7045 173.402 14.4148 173.402 15.3466H168.374C168.374 13.1648 169.169 11.4545 170.76 10.2159C172.351 8.96591 174.385 8.34091 176.862 8.34091C178.555 8.34091 180.027 8.63636 181.277 9.22727C182.527 9.80682 183.493 10.5966 184.175 11.5966C184.868 12.5966 185.214 13.7159 185.214 14.9545C185.214 15.9545 185.004 16.8864 184.584 17.75C184.175 18.6023 183.538 19.4432 182.675 20.2727C181.822 21.0909 180.72 21.9489 179.368 22.8466L176.334 25.0966V25.2841H185.453V29.5455H168.8Z" fill="#2D5BFF"/>
<path d="M12.0511 46H4.14205L16.1932 11.0909H25.7045L37.7386 46H29.8295L21.0852 19.0682H20.8125L12.0511 46ZM11.5568 32.2784H30.2386V38.0398H11.5568V32.2784ZM41.9403 46V11.0909H55.7131C58.3494 11.0909 60.5994 11.5625 62.4631 12.5057C64.3381 13.4375 65.7642 14.7614 66.7415 16.4773C67.7301 18.1818 68.2244 20.1875 68.2244 22.4943C68.2244 24.8125 67.7244 26.8068 66.7244 28.4773C65.7244 30.1364 64.2756 31.4091 62.3778 32.2955C60.4915 33.1818 58.2074 33.625 55.5256 33.625H46.304V27.6932H54.3324C55.7415 27.6932 56.9119 27.5 57.8438 27.1136C58.7756 26.7273 59.4688 26.1477 59.9233 25.375C60.3892 24.6023 60.6222 23.642 60.6222 22.4943C60.6222 21.3352 60.3892 20.358 59.9233 19.5625C59.4688 18.767 58.7699 18.1648 57.8267 17.7557C56.8949 17.3352 55.7188 17.125 54.2983 17.125H49.321V46H41.9403ZM60.7926 30.1136L69.4688 46H61.321L52.8324 30.1136H60.7926ZM72.1108 17.1761V11.0909H100.781V17.1761H90.0938V46H82.7983V17.1761H72.1108ZM124.44 21.1307C124.304 19.7557 123.719 18.6875 122.685 17.9261C121.651 17.1648 120.247 16.7841 118.474 16.7841C117.27 16.7841 116.253 16.9545 115.423 17.2955C114.594 17.625 113.957 18.0852 113.514 18.6761C113.082 19.267 112.866 19.9375 112.866 20.6875C112.844 21.3125 112.974 21.858 113.259 22.3239C113.554 22.7898 113.957 23.1932 114.469 23.5341C114.98 23.8636 115.571 24.1534 116.241 24.4034C116.912 24.642 117.628 24.8466 118.389 25.017L121.526 25.767C123.048 26.108 124.446 26.5625 125.719 27.1307C126.991 27.6989 128.094 28.3977 129.026 29.2273C129.957 30.0568 130.679 31.0341 131.19 32.1591C131.713 33.2841 131.98 34.5739 131.991 36.0284C131.98 38.1648 131.435 40.017 130.355 41.5852C129.287 43.142 127.741 44.3523 125.719 45.2159C123.707 46.0682 121.281 46.4943 118.44 46.4943C115.622 46.4943 113.168 46.0625 111.077 45.1989C108.997 44.3352 107.372 43.0568 106.202 41.3636C105.043 39.6591 104.435 37.5511 104.378 35.0398H111.52C111.599 36.2102 111.935 37.1875 112.526 37.9716C113.128 38.7443 113.929 39.3295 114.929 39.7273C115.94 40.1136 117.082 40.3068 118.355 40.3068C119.605 40.3068 120.69 40.125 121.611 39.7614C122.543 39.3977 123.264 38.892 123.776 38.2443C124.287 37.5966 124.543 36.8523 124.543 36.0114C124.543 35.2273 124.31 34.5682 123.844 34.0341C123.389 33.5 122.719 33.0455 121.832 32.6705C120.957 32.2955 119.884 31.9545 118.611 31.6477L114.81 30.6932C111.866 29.9773 109.543 28.858 107.838 27.3352C106.134 25.8125 105.287 23.7614 105.298 21.1818C105.287 19.0682 105.849 17.2216 106.986 15.642C108.134 14.0625 109.707 12.8295 111.707 11.9432C113.707 11.0568 115.98 10.6136 118.526 10.6136C121.116 10.6136 123.378 11.0568 125.31 11.9432C127.253 12.8295 128.764 14.0625 129.844 15.642C130.923 17.2216 131.48 19.0511 131.514 21.1307H124.44ZM134.911 11.0909H143.178L151.138 26.125H151.479L159.439 11.0909H167.706L154.973 33.6591V46H147.643V33.6591L134.911 11.0909ZM170.8 28.5455V24.7784L179.101 18.1477C179.737 17.625 180.288 17.1534 180.754 16.733C181.22 16.3125 181.584 15.8864 181.845 15.4545C182.107 15.0227 182.237 14.5455 182.237 14.0227C182.237 13.2045 181.902 12.5739 181.232 12.1307C180.561 11.6875 179.749 11.4659 178.794 11.4659C177.771 11.4659 176.947 11.7159 176.322 12.2159C175.709 12.7045 175.402 13.4148 175.402 14.3466H170.374C170.374 12.1648 171.169 10.4545 172.76 9.21591C174.351 7.96591 176.385 7.34091 178.862 7.34091C180.555 7.34091 182.027 7.63636 183.277 8.22727C184.527 8.80682 185.493 9.59659 186.175 10.5966C186.868 11.5966 187.214 12.7159 187.214 13.9545C187.214 14.9545 187.004 15.8864 186.584 16.75C186.175 17.6023 185.538 18.4432 184.675 19.2727C183.822 20.0909 182.72 20.9489 181.368 21.8466L178.334 24.0966V24.2841H187.453V28.5455H170.8Z" fill="#F6FF8E"/>
</svg>
